<?xml version="1.0" encoding="UTF-8"?>
<svg width="40px" height="40px" viewBox="0 0 40 40" version="1.1" xmlns="http://www.w3.org/2000/svg" xmlns:xlink="http://www.w3.org/1999/xlink">
    <!-- Generator: Sketch 41 (35326) - http://www.bohemiancoding.com/sketch -->
    <title>send</title>
    <desc>Created with Sketch.</desc>
    <defs></defs>
    <g id="Deloitte" stroke="none" stroke-width="1" fill="none" fill-rule="evenodd">
        <g id="Chatbot-front-end-mobile-site" transform="translate(-268.000000, -611.000000)" fill="#000000">
            <g id="Chat" transform="translate(0.000000, 597.000000)">
                <g id="send" transform="translate(287.500000, 34.500000) rotate(45.000000) translate(-287.500000, -34.500000) translate(268.000000, 14.000000)">
                    <polygon id="Fill-1" points="8.92496772 19.7785746 14.5844386 24.0507613 27.3183857 11.2343397"></polygon>
                    <polygon id="Fill-2" points="19.4127074 30.3343669 27.9019138 11.8217887 15.1681042 24.6382103"></polygon>
                    <g id="Group-5" transform="translate(-0.000000, 0.064314)">
                        <path d="M29.6557788,9.86976128 C29.6511016,9.9066603 29.6413344,9.94335164 29.6263397,9.97900454 C29.6262709,9.97907376 29.6262709,9.97914299 29.6262021,9.97921222 C29.6242762,9.98391979 29.6221439,9.98869659 29.6199429,9.99333492 L19.8722815,31.2502865 C19.8114085,31.3830676 19.6856042,31.4738267 19.541091,31.4892647 C19.526509,31.4907878 19.511927,31.4915493 19.4974825,31.4915493 C19.3685143,31.4915493 19.2458053,31.4306278 19.1674614,31.3253999 L14.3284349,24.8315875 L7.87637672,19.9611936 C7.76013333,19.8734113 7.69822857,19.7305228 7.7135672,19.585142 C7.72890582,19.4396228 7.81908042,19.3130031 7.95107513,19.2517355 L29.0674772,9.44248031 C29.0826783,9.43521127 29.0982233,9.42884221 29.1139746,9.42344235 C29.1806254,9.40066603 29.2499587,9.39616615 29.3159905,9.40738124 C29.3582233,9.4147195 29.3996995,9.42863452 29.4389058,9.44947243 C29.5023926,9.48304846 29.5574878,9.53351635 29.5971069,9.59789926 C29.6095566,9.61811411 29.6201492,9.63929816 29.6289534,9.6611745 C29.6564667,9.72943423 29.6645831,9.80108618 29.6557788,9.86976128 M19.4975513,0.00491525424 C8.72935556,0.00491525424 2.75132277e-05,8.79082836 2.75132277e-05,19.6288255 C2.75132277e-05,30.4668919 8.72935556,39.252805 19.4975513,39.252805 C30.2657471,39.252805 38.9951439,30.4668919 38.9951439,19.6288255 C38.9951439,8.79082836 30.2657471,0.00491525424 19.4975513,0.00491525424" id="Fill-3"></path>
                    </g>
                </g>
            </g>
        </g>
    </g>
</svg>